{
  "accessors": [
    {
      "bufferView": 0,
      "componentType": 5126,
      "count": 2644,
      "max": [
        4.553956031799316,
        11.824349403381348,
        4.554034233093262
      ],
      "min": [
        -4.554034233093262,
        -0.0047145504504442215,
        -4.553956031799316
      ],
      "name": "Wedding_03_Whole/POSITION",
      "type": "VEC3"
    },
    {
      "bufferView": 0,
      "byteOffset": 12,
      "componentType": 5126,
      "count": 2644,
      "name": "Wedding_03_Whole/NORMAL",
      "type": "VEC3"
    },
    {
      "bufferView": 0,
      "byteOffset": 24,
      "componentType": 5126,
      "count": 2644,
      "name": "Wedding_03_Whole/TEXCOORD_0",
      "type": "VEC2"
    },
    {
      "bufferView": 0,
      "byteOffset": 32,
      "componentType": 5126,
      "count": 2644,
      "name": "Wedding_03_Whole/COLOR_0",
      "type": "VEC4"
    },
    {
      "bufferView": 1,
      "componentType": 5125,
      "count": 8250,
      "name": "Wedding_03_Whole/INDICES",
      "type": "SCALAR"
    }
  ],
  "asset": {
    "copyright": "Copyright (c) 2018-2020 Chukong Technologies Inc.",
    "generator": "FBX-glTF-conv",
    "version": "2.0"
  },
  "bufferViews": [
    {
      "buffer": 0,
      "byteLength": 126912,
      "byteStride": 48,
      "name": "Wedding_03_Whole",
      "target": 34962
    },
    {
      "buffer": 0,
      "byteLength": 33000,
      "byteOffset": 126912
    }
  ],
  "buffers": [
    {
      "byteLength": 159912,
      "uri": "out.bin"
    }
  ],
  "extras": {
    "FBX-glTF-conv": {
      "animationFrameRate": 24.0
    }
  },
  "materials": [
    {
      "alphaMode": "BLEND",
      "name": "cake_mtl",
      "pbrMetallicRoughness": {
        "baseColorFactor": [
          0.5,
          0.5,
          0.5,
          1.0
        ]
      }
    }
  ],
  "meshes": [
    {
      "name": "Wedding_03_Whole",
      "primitives": [
        {
          "attributes": {
            "COLOR_0": 3,
            "NORMAL": 1,
            "POSITION": 0,
            "TEXCOORD_0": 2
          },
          "indices": 4,
          "material": 0
        }
      ]
    }
  ],
  "nodes": [
    {
      "mesh": 0,
      "name": "Wedding_03_Whole"
    }
  ],
  "scenes": [
    {
      "nodes": [
        0
      ]
    }
  ]
}